<?xml version="1.0" encoding="UTF-8" standalone="no"?>
<!-- Created with Inkscape (http://www.inkscape.org/) -->

<svg
   xmlns:dc="http://purl.org/dc/elements/1.1/"
   xmlns:cc="http://creativecommons.org/ns#"
   xmlns:rdf="http://www.w3.org/1999/02/22-rdf-syntax-ns#"
   xmlns:svg="http://www.w3.org/2000/svg"
   xmlns="http://www.w3.org/2000/svg"
   xmlns:sodipodi="http://sodipodi.sourceforge.net/DTD/sodipodi-0.dtd"
   xmlns:inkscape="http://www.inkscape.org/namespaces/inkscape"
   width="88.319427mm"
   height="22.470072mm"
   viewBox="0 0 312.94285 79.618365"
   id="svg2"
   version="1.1"
   inkscape:version="0.91 r13725"
   sodipodi:docname="mosaic-logo.svg">
  <defs
     id="defs4" />
  <sodipodi:namedview
     id="base"
     pagecolor="#ffffff"
     bordercolor="#666666"
     borderopacity="1.0"
     inkscape:pageopacity="0.0"
     inkscape:pageshadow="2"
     inkscape:zoom="1"
     inkscape:cx="58.89145"
     inkscape:cy="-4.7717432"
     inkscape:document-units="px"
     inkscape:current-layer="layer1"
     showgrid="false"
     fit-margin-top="0"
     fit-margin-left="0"
     fit-margin-right="0"
     fit-margin-bottom="0"
     inkscape:window-width="1366"
     inkscape:window-height="705"
     inkscape:window-x="-8"
     inkscape:window-y="-8"
     inkscape:window-maximized="1" />
  <metadata
     id="metadata7">
    <rdf:RDF>
      <cc:Work
         rdf:about="">
        <dc:format>image/svg+xml</dc:format>
        <dc:type
           rdf:resource="http://purl.org/dc/dcmitype/StillImage" />
        <dc:title></dc:title>
      </cc:Work>
    </rdf:RDF>
  </metadata>
  <g
     inkscape:label="Vrstva 1"
     inkscape:groupmode="layer"
     id="layer1"
     transform="translate(-113.50857,-529.2052)">
    <path
       inkscape:connector-curvature="0"
       id="path3356"
       style="font-style:normal;font-variant:normal;font-weight:bold;font-stretch:normal;font-size:40px;line-height:125%;font-family:Dotline;-inkscape-font-specification:'Dotline, Bold';text-align:start;letter-spacing:0px;word-spacing:0px;writing-mode:lr-tb;text-anchor:start;fill:#b3b3b3;fill-opacity:1;stroke:none;stroke-width:1px;stroke-linecap:butt;stroke-linejoin:miter;stroke-opacity:1"
       d="m 116.46411,587.94356 q -1.24444,0 -2.09999,0.85555 -0.85555,0.85555 -0.85555,2.02221 0,1.24444 0.85555,2.09999 0.85555,0.85555 2.09999,0.85555 1.24444,0 2.02221,-0.85555 0.85555,-0.85555 0.85555,-2.09999 0,-1.16666 -0.85555,-2.02221 -0.77777,-0.85555 -2.02221,-0.85555 z m 0,-7.77774 q -1.24444,0 -2.09999,0.85555 -0.85555,0.85555 -0.85555,2.02221 0,1.24444 0.85555,2.09999 0.85555,0.85555 2.09999,0.85555 1.24444,0 2.02221,-0.85555 0.85555,-0.85555 0.85555,-2.09999 0,-1.16666 -0.85555,-2.02221 -0.77777,-0.85555 -2.02221,-0.85555 z m 0,-7.77774 q -1.24444,0 -2.09999,0.85555 -0.85555,0.85555 -0.85555,2.02221 0,1.24444 0.85555,2.09999 0.85555,0.85555 2.09999,0.85555 1.24444,0 2.02221,-0.85555 0.85555,-0.85555 0.85555,-2.09999 0,-1.16666 -0.85555,-2.02221 -0.77777,-0.85555 -2.02221,-0.85555 z m 0,-7.77774 q -1.24444,0 -2.09999,0.85555 -0.85555,0.85555 -0.85555,2.02221 0,1.24444 0.85555,2.09999 0.85555,0.85555 2.09999,0.85555 1.24444,0 2.02221,-0.85555 0.85555,-0.85555 0.85555,-2.09999 0,-1.16666 -0.85555,-2.02221 -0.77777,-0.85555 -2.02221,-0.85555 z m 26.52209,23.33322 q -1.24444,0 -2.09999,0.85555 -0.85555,0.85555 -0.85555,2.02221 0,1.24444 0.85555,2.09999 0.85555,0.85555 2.09999,0.85555 1.16666,0 2.02221,-0.85555 0.85555,-0.85555 0.85555,-2.09999 0,-1.16666 -0.85555,-2.02221 -0.85555,-0.85555 -2.02221,-0.85555 z m -25.27765,-30.9554 q -1.24444,0 -2.09999,0.85555 -0.85555,0.85555 -0.85555,2.09999 0,1.16666 0.85555,2.02221 0.85555,0.85555 2.09999,0.85555 1.16666,0 2.02221,-0.85555 0.85555,-0.85555 0.85555,-2.02221 0,-1.24444 -0.85555,-2.09999 -0.85555,-0.85555 -2.02221,-0.85555 z m 25.27765,23.17766 q -1.24444,0 -2.09999,0.85555 -0.85555,0.85555 -0.85555,2.02221 0,1.24444 0.85555,2.09999 0.85555,0.85555 2.09999,0.85555 1.16666,0 2.02221,-0.85555 0.85555,-0.85555 0.85555,-2.09999 0,-1.16666 -0.85555,-2.02221 -0.85555,-0.85555 -2.02221,-0.85555 z m 0,-7.77774 q -1.24444,0 -2.09999,0.85555 -0.85555,0.85555 -0.85555,2.02221 0,1.24444 0.85555,2.09999 0.85555,0.85555 2.09999,0.85555 1.16666,0 2.02221,-0.85555 0.85555,-0.85555 0.85555,-2.09999 0,-1.16666 -0.85555,-2.02221 -0.85555,-0.85555 -2.02221,-0.85555 z m -20.22212,-21.15545 q -1.24444,0 -2.09999,0.85555 -0.85555,0.85555 -0.85555,2.09999 0,1.16666 0.85555,2.02221 0.85555,0.85555 2.09999,0.85555 1.16666,0 2.02221,-0.85555 0.85555,-0.85555 0.85555,-2.02221 0,-1.24444 -0.85555,-2.09999 -0.85555,-0.85555 -2.02221,-0.85555 z m 20.22212,13.37771 q -1.24444,0 -2.09999,0.85555 -0.85555,0.85555 -0.85555,2.02221 0,1.24444 0.85555,2.09999 0.85555,0.85555 2.09999,0.85555 1.16666,0 2.02221,-0.85555 0.85555,-0.85555 0.85555,-2.09999 0,-1.16666 -0.85555,-2.02221 -0.85555,-0.85555 -2.02221,-0.85555 z m -12.83327,-15.39992 q -1.16666,0 -2.02221,0.85555 -0.85555,0.85555 -0.85555,2.09999 0,1.16666 0.85555,2.02221 0.85555,0.85555 2.02221,0.85555 1.24444,0 2.09999,-0.85555 0.85555,-0.85555 0.85555,-2.02221 0,-1.24444 -0.85555,-2.09999 -0.85555,-0.85555 -2.09999,-0.85555 z m 39.27758,38.73314 q -1.16666,0 -2.02221,0.85555 -0.85555,0.85555 -0.85555,2.02221 0,1.24444 0.85555,2.09999 0.85555,0.85555 2.02221,0.85555 1.24444,0 2.09999,-0.85555 0.85555,-0.85555 0.85555,-2.09999 0,-1.16666 -0.85555,-2.02221 -0.85555,-0.85555 -2.09999,-0.85555 z M 142.9862,556.8326 q -1.24444,0 -2.09999,0.85555 -0.85555,0.85555 -0.85555,2.02222 0,1.24443 0.85555,2.09998 0.85555,0.85556 2.09999,0.85556 1.16666,0 2.02221,-0.85556 0.85555,-0.85555 0.85555,-2.09998 0,-1.16667 -0.85555,-2.02222 -0.85555,-0.85555 -2.02221,-0.85555 z m -5.44442,-5.59997 q -1.16666,0 -2.02221,0.85555 -0.85555,0.85555 -0.85555,2.09999 0,1.16666 0.85555,2.02221 0.85555,0.85555 2.02221,0.85555 1.24444,0 2.09999,-0.85555 0.85555,-0.85555 0.85555,-2.02221 0,-1.24444 -0.85555,-2.09999 -0.85555,-0.85555 -2.09999,-0.85555 z m 31.88873,28.93319 q -1.16666,0 -2.02221,0.85555 -0.85555,0.85555 -0.85555,2.02221 0,1.24444 0.85555,2.09999 0.85555,0.85555 2.02221,0.85555 1.24444,0 2.09999,-0.85555 0.85555,-0.85555 0.85555,-2.09999 0,-1.16666 -0.85555,-2.02221 -0.85555,-0.85555 -2.09999,-0.85555 z m 0,-7.77774 q -1.16666,0 -2.02221,0.85555 -0.85555,0.85555 -0.85555,2.02221 0,1.24444 0.85555,2.09999 0.85555,0.85555 2.02221,0.85555 1.24444,0 2.09999,-0.85555 0.85555,-0.85555 0.85555,-2.09999 0,-1.16666 -0.85555,-2.02221 -0.85555,-0.85555 -2.09999,-0.85555 z m -21.07767,-21.15545 q -1.24444,0 -2.09999,0.85555 -0.85555,0.85555 -0.85555,2.09999 0,1.16666 0.85555,2.02221 0.85555,0.85555 2.09999,0.85555 1.16666,0 2.02221,-0.85555 0.85555,-0.85555 0.85555,-2.02221 0,-1.24444 -0.85555,-2.09999 -0.85555,-0.85555 -2.02221,-0.85555 z m 21.07767,13.37771 q -1.16666,0 -2.02221,0.85555 -0.85555,0.85555 -0.85555,2.02221 0,1.24444 0.85555,2.09999 0.85555,0.85555 2.02221,0.85555 1.24444,0 2.09999,-0.85555 0.85555,-0.85555 0.85555,-2.09999 0,-1.16666 -0.85555,-2.02221 -0.85555,-0.85555 -2.09999,-0.85555 z m -13.68882,-15.39992 q -1.16666,0 -2.02221,0.85555 -0.85555,0.85555 -0.85555,2.09999 0,1.16666 0.85555,2.02221 0.85555,0.85555 2.02221,0.85555 1.24444,0 2.09999,-0.85555 0.85555,-0.85555 0.85555,-2.02221 0,-1.24444 -0.85555,-2.09999 -0.85555,-0.85555 -2.09999,-0.85555 z m 12.52216,7.77774 q -1.24444,0 -2.09999,0.85555 -0.85555,0.85555 -0.85555,2.09999 0,1.16666 0.85555,2.02221 0.85555,0.85555 2.09999,0.85555 1.16666,0 2.02221,-0.85555 0.85555,-0.85555 0.85555,-2.02221 0,-1.24444 -0.85555,-2.09999 -0.85555,-0.85555 -2.02221,-0.85555 z m -5.05553,-5.75553 q -1.24444,0 -2.09999,0.85555 -0.85555,0.85555 -0.85555,2.09999 0,1.16666 0.85555,2.02221 0.85555,0.85555 2.09999,0.85555 1.16666,0 2.02221,-0.85555 0.85555,-0.85555 0.85555,-2.02221 0,-1.24444 -0.85555,-2.09999 -0.85555,-0.85555 -2.02221,-0.85555 z" />
    <path
       inkscape:connector-curvature="0"
       id="path3358"
       style="font-style:normal;font-variant:normal;font-weight:bold;font-stretch:normal;font-size:40px;line-height:125%;font-family:Dotline;-inkscape-font-specification:'Dotline, Bold';text-align:start;letter-spacing:0px;word-spacing:0px;writing-mode:lr-tb;text-anchor:start;fill:#b3b3b3;fill-opacity:1;stroke:none;stroke-width:1px;stroke-linecap:butt;stroke-linejoin:miter;stroke-opacity:1"
       d="m 189.91149,585.22135 q -1.24444,0 -2.09999,0.85555 -0.85555,0.85555 -0.85555,2.02221 0,1.24444 0.85555,2.09999 0.85555,0.85555 2.09999,0.85555 1.16666,0 2.02221,-0.85555 0.85555,-0.85555 0.85555,-2.09999 0,-1.16666 -0.85555,-2.02221 -0.85555,-0.85555 -2.02221,-0.85555 z m -5.28886,-5.75553 q -1.16666,0 -2.02221,0.85555 -0.85555,0.85555 -0.85555,2.02221 0,1.24444 0.85555,2.09999 0.85555,0.85555 2.02221,0.85555 1.24444,0 2.09999,-0.85555 0.85555,-0.85555 0.85555,-2.09999 0,-1.16666 -0.85555,-2.02221 -0.85555,-0.85555 -2.09999,-0.85555 z m 12.21105,9.09995 q -1.24444,0 -2.09999,0.85556 -0.85555,0.85555 -0.85555,2.09999 0,1.16666 0.85555,2.02221 0.85555,0.85555 2.09999,0.85555 1.16666,0 2.02221,-0.85555 0.85555,-0.85555 0.85555,-2.02221 0,-1.24444 -0.85555,-2.09999 -0.85555,-0.85556 -2.02221,-0.85556 z m -14.93326,-16.33325 q -1.24444,0 -2.09999,0.85556 -0.85555,0.85555 -0.85555,2.02221 0,1.24444 0.85555,2.09999 0.85555,0.85555 2.09999,0.85555 1.24444,0 2.02221,-0.85555 0.85555,-0.85555 0.85555,-2.09999 0,-1.16666 -0.85555,-2.02221 -0.77777,-0.85556 -2.02221,-0.85556 z m 22.63322,17.03325 q -1.24444,0 -2.09999,0.85555 -0.85555,0.85555 -0.85555,2.09999 0,1.16666 0.85555,2.02221 0.85555,0.85555 2.09999,0.85555 1.24444,0 2.02221,-0.85555 0.85555,-0.85555 0.85555,-2.02221 0,-1.24444 -0.85555,-2.09999 -0.77777,-0.85555 -2.02221,-0.85555 z m -22.63322,-24.73321 q -1.24444,0 -2.09999,0.85555 -0.85555,0.85556 -0.85555,2.02222 0,1.24443 0.85555,2.09999 0.85555,0.85555 2.09999,0.85555 1.24444,0 2.02221,-0.85555 0.85555,-0.85556 0.85555,-2.09999 0,-1.16666 -0.85555,-2.02222 -0.77777,-0.85555 -2.02221,-0.85555 z m 30.09985,22.63322 q -1.24444,0 -2.09999,0.85555 -0.85555,0.85555 -0.85555,2.09999 0,1.16666 0.85555,2.02221 0.85555,0.85556 2.09999,0.85556 1.16666,0 2.02221,-0.85556 0.85555,-0.85555 0.85555,-2.02221 0,-1.24444 -0.85555,-2.09999 -0.85555,-0.85555 -2.02221,-0.85555 z m -27.37764,-29.86651 q -1.16666,0 -2.02221,0.85555 -0.85555,0.85555 -0.85555,2.02221 0,1.24444 0.85555,2.09999 0.85555,0.85555 2.02221,0.85555 1.24444,0 2.09999,-0.85555 0.85555,-0.85555 0.85555,-2.09999 0,-1.16666 -0.85555,-2.02221 -0.85555,-0.85555 -2.09999,-0.85555 z m 33.52205,25.27765 q -1.24444,0 -2.09999,0.85555 -0.85555,0.85555 -0.85555,2.02221 0,1.24444 0.85555,2.09999 0.85555,0.85555 2.09999,0.85555 1.24444,0 2.02221,-0.85555 0.85555,-0.85555 0.85555,-2.09999 0,-1.16666 -0.85555,-2.02221 -0.77777,-0.85555 -2.02221,-0.85555 z m -28.31097,-30.9554 q -1.16666,0 -2.02221,0.85555 -0.85555,0.85555 -0.85555,2.02221 0,1.24444 0.85555,2.09999 0.85555,0.85555 2.02221,0.85555 1.24444,0 2.09999,-0.85555 0.85555,-0.85555 0.85555,-2.09999 0,-1.16666 -0.85555,-2.02221 -0.85555,-0.85555 -2.09999,-0.85555 z m 32.35539,24.34432 q -1.16666,0 -2.02221,0.85555 -0.85555,0.85555 -0.85555,2.02221 0,1.24444 0.85555,2.09999 0.85555,0.85555 2.02221,0.85555 1.24444,0 2.09999,-0.85555 0.85556,-0.85555 0.85556,-2.09999 0,-1.16666 -0.85556,-2.02221 -0.85555,-0.85555 -2.09999,-0.85555 z m -25.35542,-27.92208 q -1.24444,0 -2.09999,0.85555 -0.85555,0.85555 -0.85555,2.09999 0,1.24444 0.85555,2.09999 0.85555,0.77777 2.09999,0.77777 1.16666,0 2.02221,-0.77777 0.85555,-0.85555 0.85555,-2.09999 0,-1.24444 -0.85555,-2.09999 -0.85555,-0.85555 -2.02221,-0.85555 z m 26.8332,20.2999 q -1.24444,0 -2.09999,0.85555 -0.85556,0.85555 -0.85556,2.02221 0,1.24444 0.85556,2.09999 0.85555,0.85555 2.09999,0.85555 1.16666,0 2.02221,-0.85555 0.85555,-0.85555 0.85555,-2.09999 0,-1.16666 -0.85555,-2.02221 -0.85555,-0.85555 -2.02221,-0.85555 z m -19.21102,-20.92212 q -1.16666,0 -2.02221,0.85555 -0.85555,0.85555 -0.85555,2.02221 0,1.24444 0.85555,2.09999 0.85555,0.85555 2.02221,0.85555 1.24444,0 2.09999,-0.85555 0.85555,-0.85555 0.85555,-2.09999 0,-1.16666 -0.85555,-2.02221 -0.85555,-0.85555 -2.09999,-0.85555 z m 17.81102,13.29993 q -1.24444,0 -2.09999,0.85555 -0.85555,0.85555 -0.85555,2.09999 0,1.16666 0.85555,2.02221 0.85555,0.85556 2.09999,0.85556 1.16666,0 2.02221,-0.85556 0.85556,-0.85555 0.85556,-2.02221 0,-1.24444 -0.85556,-2.09999 -0.85555,-0.85555 -2.02221,-0.85555 z m -10.34439,-11.19994 q -1.16666,0 -2.02221,0.85555 -0.85555,0.85555 -0.85555,2.02221 0,1.24444 0.85555,2.09999 0.85555,0.85555 2.02221,0.85555 1.24444,0 2.09999,-0.85555 0.85555,-0.85555 0.85555,-2.09999 0,-1.16666 -0.85555,-2.02221 -0.85555,-0.85555 -2.09999,-0.85555 z m 6.22219,4.58886 q -1.24444,0 -2.09999,0.85556 -0.85555,0.85555 -0.85555,2.09998 0,1.16667 0.85555,2.02222 0.85555,0.85555 2.09999,0.85555 1.24444,0 2.02221,-0.85555 0.85555,-0.85555 0.85555,-2.02222 0,-1.24443 -0.85555,-2.09998 -0.77777,-0.85556 -2.02221,-0.85556 z" />
    <path
       inkscape:connector-curvature="0"
       id="path3360"
       style="font-style:normal;font-variant:normal;font-weight:bold;font-stretch:normal;font-size:40px;line-height:125%;font-family:Dotline;-inkscape-font-specification:'Dotline, Bold';text-align:start;letter-spacing:0px;word-spacing:0px;writing-mode:lr-tb;text-anchor:start;fill:#b3b3b3;fill-opacity:1;stroke:none;stroke-width:1px;stroke-linecap:butt;stroke-linejoin:miter;stroke-opacity:1"
       d="m 238.26835,584.44357 q -1.16666,0 -2.02221,0.85555 -0.85555,0.85556 -0.85555,2.02222 0,1.24443 0.85555,2.09999 0.85555,0.85555 2.02221,0.85555 1.24444,0 2.09999,-0.85555 0.85555,-0.85556 0.85555,-2.09999 0,-1.16666 -0.85555,-2.02222 -0.85555,-0.85555 -2.09999,-0.85555 z m -3.88887,-6.68885 q -1.16666,0 -2.02221,0.85555 -0.85555,0.85555 -0.85555,2.02221 0,1.24444 0.85555,2.09999 0.85555,0.85555 2.02221,0.85555 1.24444,0 2.09999,-0.85555 0.85556,-0.85555 0.85556,-2.09999 0,-1.16666 -0.85556,-2.02221 -0.85555,-0.85555 -2.09999,-0.85555 z m 10.88884,10.03328 q -1.24444,0 -2.09999,0.85555 -0.85555,0.85555 -0.85555,2.02221 0,1.24444 0.85555,2.09999 0.85555,0.85555 2.09999,0.85555 1.16666,0 2.02221,-0.85555 0.85555,-0.85555 0.85555,-2.09999 0,-1.16666 -0.85555,-2.02221 -0.85555,-0.85555 -2.02221,-0.85555 z m 7.62218,1.39999 q -1.16666,0 -2.02221,0.85556 -0.85555,0.85555 -0.85555,2.02221 0,1.24444 0.85555,2.09999 0.85555,0.85555 2.02221,0.85555 1.24444,0 2.09999,-0.85555 0.85555,-0.85555 0.85555,-2.09999 0,-1.16666 -0.85555,-2.02221 -0.85555,-0.85556 -2.09999,-0.85556 z m 7.77774,-0.62222 q -1.24444,0 -2.09999,0.85556 -0.85555,0.85555 -0.85555,2.02221 0,1.24444 0.85555,2.09999 0.85555,0.85555 2.09999,0.85555 1.16666,0 2.02221,-0.85555 0.85555,-0.85555 0.85555,-2.09999 0,-1.16666 -0.85555,-2.02221 -0.85555,-0.85556 -2.02221,-0.85556 z m -18.82213,-26.67764 q -1.16666,0 -2.02221,0.85555 -0.85555,0.85555 -0.85555,2.09999 0,1.16666 0.85555,2.02221 0.85555,0.85556 2.02221,0.85556 1.24444,0 2.09999,-0.85556 0.85555,-0.85555 0.85555,-2.02221 0,-1.24444 -0.85555,-2.09999 -0.85555,-0.85555 -2.09999,-0.85555 z m 25.97765,23.87766 q -1.16666,0 -2.02221,0.85555 -0.85555,0.85555 -0.85555,2.09999 0,1.16666 0.85555,2.02221 0.85555,0.85555 2.02221,0.85555 1.24444,0 2.09999,-0.85555 0.85555,-0.85555 0.85555,-2.02221 0,-1.24444 -0.85555,-2.09999 -0.85555,-0.85555 -2.09999,-0.85555 z m -29.47763,-30.41096 q -1.24444,0 -2.09999,0.85555 -0.85555,0.85555 -0.85555,2.09999 0,1.16666 0.85555,2.02221 0.85555,0.85556 2.09999,0.85556 1.16666,0 2.02221,-0.85556 0.85555,-0.85555 0.85555,-2.02221 0,-1.24444 -0.85555,-2.09999 -0.85555,-0.85555 -2.02221,-0.85555 z m 10.57773,9.72218 q -1.16667,0 -2.02222,0.85555 -0.85555,0.85555 -0.85555,2.02221 0,1.24444 0.85555,2.09999 0.85555,0.85555 2.02222,0.85555 1.24443,0 2.09998,-0.85555 0.85556,-0.85555 0.85556,-2.09999 0,-1.16666 -0.85556,-2.02221 -0.85555,-0.85555 -2.09998,-0.85555 z m 7.62218,1.55554 q -1.24444,0 -2.09999,0.85555 -0.77777,0.85556 -0.77777,2.02222 0,1.24443 0.77777,2.09999 0.85555,0.85555 2.09999,0.85555 1.24444,0 2.09999,-0.85555 0.85555,-0.85556 0.85555,-2.09999 0,-1.16666 -0.85555,-2.02222 -0.85555,-0.85555 -2.09999,-0.85555 z m 16.25547,13.37771 q -1.24444,0 -2.09999,0.85555 -0.85555,0.85556 -0.85555,2.02222 0,1.24443 0.85555,2.09999 0.85555,0.85555 2.09999,0.85555 1.24444,0 2.02221,-0.85555 0.85556,-0.85556 0.85556,-2.09999 0,-1.16666 -0.85556,-2.02222 -0.77777,-0.85555 -2.02221,-0.85555 z m -30.02207,-30.64429 q -1.24444,0 -2.09999,0.85555 -0.85555,0.85556 -0.85555,2.09999 0,1.16666 0.85555,2.02222 0.85555,0.85555 2.09999,0.85555 1.16666,0 2.02221,-0.85555 0.85556,-0.85556 0.85556,-2.02222 0,-1.24443 -0.85556,-2.09999 -0.85555,-0.85555 -2.02221,-0.85555 z m 21.31101,19.44435 q -1.24444,0 -2.09999,0.85555 -0.85556,0.85555 -0.85556,2.02221 0,1.24444 0.85556,2.09999 0.85555,0.85555 2.09999,0.85555 1.16666,0 2.02221,-0.85555 0.85555,-0.85555 0.85555,-2.09999 0,-1.16666 -0.85555,-2.02221 -0.85555,-0.85555 -2.02221,-0.85555 z m 6.45552,4.04442 q -1.24444,0 -2.09999,0.85555 -0.85555,0.85556 -0.85555,2.09999 0,1.16666 0.85555,2.02222 0.85555,0.85555 2.09999,0.85555 1.16666,0 2.02221,-0.85555 0.85555,-0.85556 0.85555,-2.02222 0,-1.24443 -0.85555,-2.09999 -0.85555,-0.85555 -2.02221,-0.85555 z m -20.2999,-25.51098 q -1.24444,0 -2.09999,0.85555 -0.85555,0.85555 -0.85555,2.09999 0,1.24444 0.85555,2.09999 0.85555,0.77778 2.09999,0.77778 1.16666,0 2.02221,-0.77778 0.85555,-0.85555 0.85555,-2.09999 0,-1.24444 -0.85555,-2.09999 -0.85555,-0.85555 -2.02221,-0.85555 z m 7.77774,0 q -1.24444,0 -2.09999,0.85555 -0.85555,0.85555 -0.85555,2.02221 0,1.24444 0.85555,2.09999 0.85555,0.85556 2.09999,0.85556 1.16666,0 2.02221,-0.85556 0.85555,-0.85555 0.85555,-2.09999 0,-1.16666 -0.85555,-2.02221 -0.85555,-0.85555 -2.02221,-0.85555 z m 7.31107,2.25555 q -1.16666,0 -2.02221,0.85555 -0.85555,0.85555 -0.85555,2.02221 0,1.24444 0.85555,2.09999 0.85555,0.85555 2.02221,0.85555 1.24444,0 2.09999,-0.85555 0.85555,-0.85555 0.85555,-2.09999 0,-1.16666 -0.85555,-2.02221 -0.85555,-0.85555 -2.09999,-0.85555 z m 5.5222,5.28886 q -1.24444,0 -2.09999,0.85555 -0.85555,0.85555 -0.85555,2.02221 0,1.24444 0.85555,2.09999 0.85555,0.85555 2.09999,0.85555 1.16666,0 2.02221,-0.85555 0.85555,-0.85555 0.85555,-2.09999 0,-1.16666 -0.85555,-2.02221 -0.85555,-0.85555 -2.02221,-0.85555 z" />
    <path
       inkscape:connector-curvature="0"
       id="path3362"
       style="font-style:normal;font-variant:normal;font-weight:bold;font-stretch:normal;font-size:40px;line-height:125%;font-family:Dotline;-inkscape-font-specification:'Dotline, Bold';text-align:start;letter-spacing:0px;word-spacing:0px;writing-mode:lr-tb;text-anchor:start;fill:#b3b3b3;fill-opacity:1;stroke:none;stroke-width:1px;stroke-linecap:butt;stroke-linejoin:miter;stroke-opacity:1"
       d="m 287.02385,579.77693 q -1.16667,0 -2.02222,0.85555 -0.85555,0.85555 -0.85555,2.09999 0,1.16666 0.85555,2.02221 0.85555,0.85555 2.02222,0.85555 1.24443,0 2.09998,-0.85555 0.85556,-0.85555 0.85556,-2.02221 0,-1.24444 -0.85556,-2.09999 -0.85555,-0.85555 -2.09998,-0.85555 z m 5.59997,5.21109 q -1.16666,0 -2.02221,0.85555 -0.85556,0.85555 -0.85556,2.09999 0,1.24443 0.85556,2.09999 0.85555,0.77777 2.02221,0.77777 1.24444,0 2.09999,-0.77777 0.85555,-0.85556 0.85555,-2.09999 0,-1.24444 -0.85555,-2.09999 -0.85555,-0.85555 -2.09999,-0.85555 z m -8.78885,-12.28883 q -1.16666,0 -2.02221,0.85555 -0.85555,0.85555 -0.85555,2.09999 0,1.16666 0.85555,2.02221 0.85555,0.85555 2.02221,0.85555 1.24444,0 2.09999,-0.85555 0.85555,-0.85555 0.85555,-2.02221 0,-1.24444 -0.85555,-2.09999 -0.85555,-0.85555 -2.09999,-0.85555 z m 16.02214,15.08881 q -1.16666,0 -2.02221,0.85555 -0.85555,0.85555 -0.85555,2.02221 0,1.24444 0.85555,2.09999 0.85555,0.85555 2.02221,0.85555 1.24444,0 2.09999,-0.85555 0.85555,-0.85555 0.85555,-2.09999 0,-1.16666 -0.85555,-2.02221 -0.85555,-0.85555 -2.09999,-0.85555 z m -16.17769,-22.78877 q -1.24444,0 -2.09999,0.85555 -0.85555,0.85555 -0.85555,2.02221 0,1.24444 0.85555,2.09999 0.85555,0.85555 2.09999,0.85555 1.24444,0 2.02221,-0.85555 0.85555,-0.85555 0.85555,-2.09999 0,-1.16666 -0.85555,-2.02221 -0.77777,-0.85555 -2.02221,-0.85555 z m 23.95543,22.39988 q -1.24444,0 -2.09999,0.85556 -0.85555,0.85555 -0.85555,2.09998 0,1.16667 0.85555,2.02222 0.85555,0.85555 2.09999,0.85555 1.16666,0 2.02221,-0.85555 0.85556,-0.85555 0.85556,-2.02222 0,-1.24443 -0.85556,-2.09998 -0.85555,-0.85556 -2.02221,-0.85556 z m -21.07767,-29.63318 q -1.24444,0 -2.09999,0.85555 -0.85555,0.85555 -0.85555,2.09999 0,1.24444 0.85555,2.09999 0.85555,0.77777 2.09999,0.77777 1.16666,0 2.02221,-0.77777 0.85555,-0.85555 0.85555,-2.09999 0,-1.24444 -0.85555,-2.09999 -0.85555,-0.85555 -2.02221,-0.85555 z m 27.99986,26.36653 q -1.16666,0 -2.02221,0.85556 -0.85555,0.85555 -0.85555,2.02221 0,1.24444 0.85555,2.09999 0.85555,0.85555 2.02221,0.85555 1.24444,0 2.09999,-0.85555 0.85555,-0.85555 0.85555,-2.09999 0,-1.16666 -0.85555,-2.02221 -0.85555,-0.85556 -2.09999,-0.85556 z m 7.93329,3.8111 q -1.24444,0 -2.09999,0.85555 -0.85555,0.85555 -0.85555,2.02221 0,1.24444 0.85555,2.09999 0.85555,0.85555 2.09999,0.85555 1.16666,0 2.02221,-0.85555 0.85556,-0.85555 0.85556,-2.09999 0,-1.16666 -0.85556,-2.02221 -0.85555,-0.85555 -2.02221,-0.85555 z M 292.0016,552.32151 q -1.24444,0 -2.09999,0.85556 -0.85555,0.85555 -0.85555,2.02221 0,1.24444 0.85555,2.09999 0.85555,0.85555 2.09999,0.85555 1.16666,0 2.02221,-0.85555 0.85555,-0.85555 0.85555,-2.09999 0,-1.16666 -0.85555,-2.02221 -0.85555,-0.85556 -2.02221,-0.85556 z m 30.48873,27.84431 q -1.24444,0 -2.09999,0.85555 -0.85555,0.85555 -0.85555,2.02221 0,1.24444 0.85555,2.09999 0.85555,0.85555 2.09999,0.85555 1.16666,0 2.02221,-0.85555 0.85556,-0.85555 0.85556,-2.09999 0,-1.16666 -0.85556,-2.02221 -0.85555,-0.85555 -2.02221,-0.85555 z M 299.15712,549.2882 q -1.24444,0 -2.09999,0.85555 -0.85555,0.85555 -0.85555,2.09999 0,1.24443 0.85555,2.09999 0.85555,0.77777 2.09999,0.77777 1.16666,0 2.02221,-0.77777 0.85555,-0.85556 0.85555,-2.09999 0,-1.24444 -0.85555,-2.09999 -0.85555,-0.85555 -2.02221,-0.85555 z m 23.33321,23.09988 q -1.24444,0 -2.09999,0.85555 -0.85555,0.85555 -0.85555,2.02221 0,1.24444 0.85555,2.09999 0.85555,0.85555 2.09999,0.85555 1.16666,0 2.02221,-0.85555 0.85556,-0.85555 0.85556,-2.09999 0,-1.16666 -0.85556,-2.02221 -0.85555,-0.85555 -2.02221,-0.85555 z m 0,-7.77774 q -1.24444,0 -2.09999,0.85555 -0.85555,0.85555 -0.85555,2.02221 0,1.24444 0.85555,2.09999 0.85555,0.85555 2.09999,0.85555 1.16666,0 2.02221,-0.85555 0.85556,-0.85555 0.85556,-2.09999 0,-1.16666 -0.85556,-2.02221 -0.85555,-0.85555 -2.02221,-0.85555 z m -15.55547,-15.55548 q -1.24444,0 -2.09999,0.85556 -0.85556,0.85555 -0.85556,2.02221 0,1.24444 0.85556,2.09999 0.85555,0.85555 2.09999,0.85555 1.16666,0 2.02221,-0.85555 0.85555,-0.85555 0.85555,-2.09999 0,-1.16666 -0.85555,-2.02221 -0.85555,-0.85556 -2.02221,-0.85556 z m 15.55547,7.77774 q -1.24444,0 -2.09999,0.85555 -0.85555,0.85555 -0.85555,2.02222 0,1.24443 0.85555,2.09998 0.85555,0.85556 2.09999,0.85556 1.16666,0 2.02221,-0.85556 0.85556,-0.85555 0.85556,-2.09998 0,-1.16667 -0.85556,-2.02222 -0.85555,-0.85555 -2.02221,-0.85555 z m -7.77774,-7.77774 q -1.24443,0 -2.09999,0.85556 -0.85555,0.85555 -0.85555,2.02221 0,1.24444 0.85555,2.09999 0.85556,0.85555 2.09999,0.85555 1.16666,0 2.02222,-0.85555 0.85555,-0.85555 0.85555,-2.09999 0,-1.16666 -0.85555,-2.02221 -0.85556,-0.85556 -2.02222,-0.85556 z m 7.77774,0 q -1.24444,0 -2.09999,0.85556 -0.85555,0.85555 -0.85555,2.02221 0,1.24444 0.85555,2.09999 0.85555,0.85555 2.09999,0.85555 1.16666,0 2.02221,-0.85555 0.85556,-0.85555 0.85556,-2.09999 0,-1.16666 -0.85556,-2.02221 -0.85555,-0.85556 -2.02221,-0.85556 z" />
    <path
       inkscape:connector-curvature="0"
       id="path3364"
       style="font-style:normal;font-variant:normal;font-weight:bold;font-stretch:normal;font-size:40px;line-height:125%;font-family:Dotline;-inkscape-font-specification:'Dotline, Bold';text-align:start;letter-spacing:0px;word-spacing:0px;writing-mode:lr-tb;text-anchor:start;fill:#b3b3b3;fill-opacity:1;stroke:none;stroke-width:1px;stroke-linecap:butt;stroke-linejoin:miter;stroke-opacity:1"
       d="m 338.1175,587.94356 q -1.24444,0 -2.09999,0.85555 -0.85555,0.85555 -0.85555,2.02221 0,1.24444 0.85555,2.09999 0.85555,0.85555 2.09999,0.85555 1.24444,0 2.02221,-0.85555 0.85555,-0.85555 0.85555,-2.09999 0,-1.16666 -0.85555,-2.02221 -0.77777,-0.85555 -2.02221,-0.85555 z m 0,-7.77774 q -1.24444,0 -2.09999,0.85555 -0.85555,0.85555 -0.85555,2.02221 0,1.24444 0.85555,2.09999 0.85555,0.85555 2.09999,0.85555 1.24444,0 2.02221,-0.85555 0.85555,-0.85555 0.85555,-2.09999 0,-1.16666 -0.85555,-2.02221 -0.77777,-0.85555 -2.02221,-0.85555 z m 0,-7.77774 q -1.24444,0 -2.09999,0.85555 -0.85555,0.85555 -0.85555,2.02221 0,1.24444 0.85555,2.09999 0.85555,0.85555 2.09999,0.85555 1.24444,0 2.02221,-0.85555 0.85555,-0.85555 0.85555,-2.09999 0,-1.16666 -0.85555,-2.02221 -0.77777,-0.85555 -2.02221,-0.85555 z m 0,-7.77774 q -1.24444,0 -2.09999,0.85555 -0.85555,0.85555 -0.85555,2.02221 0,1.24444 0.85555,2.09999 0.85555,0.85555 2.09999,0.85555 1.24444,0 2.02221,-0.85555 0.85555,-0.85555 0.85555,-2.09999 0,-1.16666 -0.85555,-2.02221 -0.77777,-0.85555 -2.02221,-0.85555 z m 0,-7.77774 q -1.24444,0 -2.09999,0.85555 -0.85555,0.85555 -0.85555,2.02222 0,1.24443 0.85555,2.09998 0.85555,0.85556 2.09999,0.85556 1.24444,0 2.02221,-0.85556 0.85555,-0.85555 0.85555,-2.09998 0,-1.16667 -0.85555,-2.02222 -0.77777,-0.85555 -2.02221,-0.85555 z m 0,-7.77774 q -1.24444,0 -2.09999,0.85556 -0.85555,0.85555 -0.85555,2.02221 0,1.24444 0.85555,2.09999 0.85555,0.85555 2.09999,0.85555 1.24444,0 2.02221,-0.85555 0.85555,-0.85555 0.85555,-2.09999 0,-1.16666 -0.85555,-2.02221 -0.77777,-0.85556 -2.02221,-0.85556 z m 0,-15.55547 q -1.24444,0 -2.09999,0.85555 -0.85555,0.85555 -0.85555,2.02221 0,1.24444 0.85555,2.09999 0.85555,0.85555 2.09999,0.85555 1.24444,0 2.02221,-0.85555 0.85555,-0.85555 0.85555,-2.09999 0,-1.16666 -0.85555,-2.02221 -0.77777,-0.85555 -2.02221,-0.85555 z" />
    <path
       inkscape:connector-curvature="0"
       id="path3366"
       style="font-style:normal;font-variant:normal;font-weight:bold;font-stretch:normal;font-size:40px;line-height:125%;font-family:Dotline;-inkscape-font-specification:'Dotline, Bold';text-align:start;letter-spacing:0px;word-spacing:0px;writing-mode:lr-tb;text-anchor:start;fill:#b3b3b3;fill-opacity:1;stroke:none;stroke-width:1px;stroke-linecap:butt;stroke-linejoin:miter;stroke-opacity:1"
       d="m 359.28996,585.22135 q -1.24444,0 -2.09999,0.85555 -0.85555,0.85555 -0.85555,2.02221 0,1.24444 0.85555,2.09999 0.85555,0.85555 2.09999,0.85555 1.16666,0 2.02221,-0.85555 0.85556,-0.85555 0.85556,-2.09999 0,-1.16666 -0.85556,-2.02221 -0.85555,-0.85555 -2.02221,-0.85555 z m -5.28886,-5.75553 q -1.16666,0 -2.02221,0.85555 -0.85555,0.85555 -0.85555,2.02221 0,1.24444 0.85555,2.09999 0.85555,0.85555 2.02221,0.85555 1.24444,0 2.09999,-0.85555 0.85555,-0.85555 0.85555,-2.09999 0,-1.16666 -0.85555,-2.02221 -0.85555,-0.85555 -2.09999,-0.85555 z m 12.21105,9.09995 q -1.24444,0 -2.09999,0.85556 -0.85555,0.85555 -0.85555,2.09999 0,1.16666 0.85555,2.02221 0.85555,0.85555 2.09999,0.85555 1.16666,0 2.02221,-0.85555 0.85555,-0.85555 0.85555,-2.02221 0,-1.24444 -0.85555,-2.09999 -0.85555,-0.85556 -2.02221,-0.85556 z m -14.93326,-16.33325 q -1.24444,0 -2.09999,0.85556 -0.85555,0.85555 -0.85555,2.02221 0,1.24444 0.85555,2.09999 0.85555,0.85555 2.09999,0.85555 1.24444,0 2.02221,-0.85555 0.85555,-0.85555 0.85555,-2.09999 0,-1.16666 -0.85555,-2.02221 -0.77777,-0.85556 -2.02221,-0.85556 z m 22.63322,17.03325 q -1.24444,0 -2.09999,0.85555 -0.85555,0.85555 -0.85555,2.09999 0,1.16666 0.85555,2.02221 0.85555,0.85555 2.09999,0.85555 1.24444,0 2.02221,-0.85555 0.85555,-0.85555 0.85555,-2.02221 0,-1.24444 -0.85555,-2.09999 -0.77777,-0.85555 -2.02221,-0.85555 z m -22.63322,-24.73321 q -1.24444,0 -2.09999,0.85555 -0.85555,0.85556 -0.85555,2.02222 0,1.24443 0.85555,2.09999 0.85555,0.85555 2.09999,0.85555 1.24444,0 2.02221,-0.85555 0.85555,-0.85556 0.85555,-2.09999 0,-1.16666 -0.85555,-2.02222 -0.77777,-0.85555 -2.02221,-0.85555 z m 30.09985,22.63322 q -1.24444,0 -2.09999,0.85555 -0.85555,0.85555 -0.85555,2.09999 0,1.16666 0.85555,2.02221 0.85555,0.85556 2.09999,0.85556 1.16666,0 2.02221,-0.85556 0.85555,-0.85555 0.85555,-2.02221 0,-1.24444 -0.85555,-2.09999 -0.85555,-0.85555 -2.02221,-0.85555 z M 354.0011,557.29927 q -1.16666,0 -2.02221,0.85555 -0.85555,0.85555 -0.85555,2.02221 0,1.24444 0.85555,2.09999 0.85555,0.85555 2.02221,0.85555 1.24444,0 2.09999,-0.85555 0.85555,-0.85555 0.85555,-2.09999 0,-1.16666 -0.85555,-2.02221 -0.85555,-0.85555 -2.09999,-0.85555 z m 33.52205,25.27765 q -1.24444,0 -2.09999,0.85555 -0.85555,0.85555 -0.85555,2.02221 0,1.24444 0.85555,2.09999 0.85555,0.85555 2.09999,0.85555 1.16666,0 2.02221,-0.85555 0.85556,-0.85555 0.85556,-2.09999 0,-1.16666 -0.85556,-2.02221 -0.85555,-0.85555 -2.02221,-0.85555 z m -28.31097,-30.9554 q -1.16666,0 -2.02221,0.85555 -0.85555,0.85555 -0.85555,2.02221 0,1.24444 0.85555,2.09999 0.85555,0.85555 2.02221,0.85555 1.24444,0 2.09999,-0.85555 0.85556,-0.85555 0.85556,-2.09999 0,-1.16666 -0.85556,-2.02221 -0.85555,-0.85555 -2.09999,-0.85555 z m 6.99997,-3.57776 q -1.24444,0 -2.09999,0.85555 -0.85555,0.85555 -0.85555,2.09999 0,1.24444 0.85555,2.09999 0.85555,0.77777 2.09999,0.77777 1.16666,0 2.02221,-0.77777 0.85555,-0.85555 0.85555,-2.09999 0,-1.24444 -0.85555,-2.09999 -0.85555,-0.85555 -2.02221,-0.85555 z m 7.62218,-0.62222 q -1.16666,0 -2.02221,0.85555 -0.85555,0.85555 -0.85555,2.02221 0,1.24444 0.85555,2.09999 0.85555,0.85555 2.02221,0.85555 1.24444,0 2.09999,-0.85555 0.85555,-0.85555 0.85555,-2.09999 0,-1.16666 -0.85555,-2.02221 -0.85555,-0.85555 -2.09999,-0.85555 z m 7.46663,2.09999 q -1.16666,0 -2.02221,0.85555 -0.85555,0.85555 -0.85555,2.02221 0,1.24444 0.85555,2.09999 0.85555,0.85555 2.02221,0.85555 1.24444,0 2.09999,-0.85555 0.85555,-0.85555 0.85555,-2.09999 0,-1.16666 -0.85555,-2.02221 -0.85555,-0.85555 -2.09999,-0.85555 z m 6.22219,4.58886 q -1.24444,0 -2.09999,0.85556 -0.85555,0.85555 -0.85555,2.09998 0,1.16667 0.85555,2.02222 0.85555,0.85555 2.09999,0.85555 1.16666,0 2.02221,-0.85555 0.85556,-0.85555 0.85556,-2.02222 0,-1.24443 -0.85556,-2.09998 -0.85555,-0.85556 -2.02221,-0.85556 z" />
    <g
       transform="matrix(0.15184875,0,0,-0.15184875,414.98821,583.00669)"
       id="g12">
      <path
         inkscape:connector-curvature="0"
         id="path14"
         style="fill:#4dba87;fill-opacity:1;fill-rule:nonzero;stroke:none"
         d="M 0,0 -22.669,-39.264 -45.338,0 -120.829,0 -22.669,-170.017 75.491,0 Z" />
    </g>
    <g
       transform="matrix(0.15184875,0,0,-0.15184875,414.98821,583.00669)"
       id="g16">
      <path
         inkscape:connector-curvature="0"
         id="path18"
         style="fill:#435466;fill-opacity:1;fill-rule:nonzero;stroke:none"
         d="M 0,0 -22.669,-39.264 -45.338,0 -81.565,0 -22.669,-102.01 36.227,0 Z" />
    </g>
    <circle
       style="opacity:1;fill:#4dba87;fill-opacity:1;stroke:none;stroke-width:1;stroke-linecap:round;stroke-linejoin:round;stroke-miterlimit:4;stroke-dasharray:2, 6;stroke-dashoffset:0;stroke-opacity:1"
       id="path3374"
       cx="337.97687"
       cy="536.49683"
       r="7.2916298" />
  </g>
</svg>
